P3
# Created by GIMP version 2.10.32 PNM plug-in
16 16
255
0
0
0
24
24
24
16
16
16
75
75
75
255
255
255
27
27
27
19
19
19
11
11
11
7
7
7
50
50
50
37
37
37
26
26
26
18
18
18
63
63
63
55
55
55
47
47
47
205
205
205
194
194
194
187
187
187
176
176
176
169
169
169
161
161
161
152
152
152
144
144
144
136
136
136
129
129
129
121
121
121
117
117
117
109
109
109
102
102
102
94
94
94
90
90
90
82
82
82
78
78
78
73
73
73
66
66
66
61
61
61
57
57
57
52
52
52
48
48
48
42
42
42
38
38
38
33
33
33
32
32
32
30
30
30
24
24
24
21
21
21
20
20
20
240
240
240
234
234
234
227
227
227
221
221
221
218
218
218
212
212
212
206
206
206
203
203
203
196
196
196
188
188
188
180
180
180
172
172
172
164
164
164
156
156
156
148
148
148
144
144
144
138
138
138
129
129
129
124
124
124
119
119
119
111
111
111
105
105
105
97
97
97
92
92
92
87
87
87
78
78
78
72
72
72
65
65
65
58
58
58
49
49
49
43
43
43
35
35
35
239
239
239
231
231
231
223
223
223
219
219
219
211
211
211
203
203
203
199
199
199
191
191
191
183
183
183
179
179
179
171
171
171
167
167
167
159
159
159
151
151
151
147
147
147
139
139
139
131
131
131
127
127
127
119
119
119
111
111
111
107
107
107
99
99
99
91
91
91
87
87
87
79
79
79
71
71
71
67
67
67
59
59
59
55
55
55
47
47
47
39
39
39
35
35
35
198
198
198
185
185
185
173
173
173
160
160
160
148
148
148
136
136
136
123
123
123
113
113
113
101
101
101
89
89
89
76
76
76
63
63
63
51
51
51
38
38
38
27
27
27
18
18
18
171
171
171
163
163
163
155
155
155
147
147
147
139
139
139
133
133
133
127
127
127
119
119
119
112
112
112
104
104
104
100
100
100
92
92
92
87
87
87
79
79
79
71
71
71
67
67
67
136
136
136
122
122
122
111
111
111
98
98
98
85
85
85
74
74
74
62
62
62
53
53
53
123
123
123
111
111
111
103
103
103
93
93
93
83
83
83
73
73
73
65
65
65
58
58
58
239
239
239
209
209
209
182
182
182
155
155
155
128
128
128
102
102
102
80
80
80
60
60
60
255
255
255
230
230
230
207
207
207
185
185
185
162
162
162
143
143
143
120
120
120
98
98
98
76
76
76
71
71
71
68
68
68
64
64
64
61
61
61
57
57
57
53
53
53
50
50
50
46
46
46
42
42
42
38
38
38
34
34
34
31
31
31
27
27
27
24
24
24
20
20
20
234
234
234
205
205
205
181
181
181
156
156
156
131
131
131
103
103
103
78
78
78
53
53
53
29
29
29
26
26
26
23
23
23
20
20
20
18
18
18
15
15
15
12
12
12
9
9
9
255
255
255
239
239
239
224
224
224
211
211
211
195
195
195
182
182
182
167
167
167
154
154
154
143
143
143
137
137
137
129
129
129
121
121
121
113
113
113
105
105
105
96
96
96
92
92
92
255
255
255
250
250
250
246
246
246
242
242
242
238
238
238
234
234
234
230
230
230
226
226
226
87
87
87
80
80
80
72
72
72
61
61
61
63
63
63
51
51
51
39
39
39
31
31
31
9
9
9
8
8
8
7
7
7
5
5
5
4
4
4
3
3
3
1
1
1
0
0
0
177
177
177
220
220
220
177
177
177
105
105
105
85
85
85
65
65
65
45
45
45
125
125
125
