P2
# Created by GIMP version 2.10.32 PNM plug-in
16 16
255
0
24
16
75
255
27
19
11
7
50
37
26
18
63
55
47
205
194
187
176
169
161
152
144
136
129
121
117
109
102
94
90
82
78
73
66
61
57
52
48
42
38
33
32
30
24
21
20
240
234
227
221
218
212
206
203
196
188
180
172
164
156
148
144
138
129
124
119
111
105
97
92
87
78
72
65
58
49
43
35
239
231
223
219
211
203
199
191
183
179
171
167
159
151
147
139
131
127
119
111
107
99
91
87
79
71
67
59
55
47
39
35
198
185
173
160
148
136
123
113
101
89
76
63
51
38
27
18
171
163
155
147
139
133
127
119
112
104
100
92
87
79
71
67
136
122
111
98
85
74
62
53
123
111
103
93
83
73
65
58
239
209
182
155
128
102
80
60
255
230
207
185
162
143
120
98
76
71
68
64
61
57
53
50
46
42
38
34
31
27
24
20
234
205
181
156
131
103
78
53
29
26
23
20
18
15
12
9
255
239
224
211
195
182
167
154
143
137
129
121
113
105
96
92
255
250
246
242
238
234
230
226
87
80
72
61
63
51
39
31
9
8
7
5
4
3
1
0
177
220
177
105
85
65
45
125
